# xmcd
#
# Track frame offsets: 
#        150
#        16330
#        34080
#        54630
#        72567
#        95970
#        115640
#        130070
#        149730
#        163039
#
# Disc length: 2431 seconds
#
# Revision: 0
# Processed by: cddbd v1.4PL0 Copyright (c) Steve Scherf et al.
# Submitted via: ExactAudioCopy v0.90a11
#
DISCID=93097d0a
DTITLE=Larry Joe Taylor - Coastal and Western
DYEAR=1900
DGENRE=
TTITLE0=Meet Me in Corpus
TTITLE1=Drive In
TTITLE2=Island Time
TTITLE3=Shrimpin' and Skrimpin'
TTITLE4=Hurricane
TTITLE5=Sea Sick
TTITLE6=Kamikaze Cowgirl
TTITLE7=My Kinda Day on Padre
TTITLE8=Gulf of Mexico
TTITLE9=One Mans Hoot
EXTD=
EXTT0=
EXTT1=
EXTT2=
EXTT3=
EXTT4=
EXTT5=
EXTT6=
EXTT7=
EXTT8=
EXTT9=
PLAYORDER=
